<mxfile host="app.diagrams.net" agent="Mozilla/5.0 (Macintosh; Intel Mac OS X 10.15; rv:137.0) Gecko/20100101 Firefox/137.0" version="26.2.13">
  <diagram name="Page-1" id="RW1gsFHbo3pk9ujT8Zfe">
    <mxGraphModel dx="1157" dy="612" grid="1" gridSize="10" guides="1" tooltips="1" connect="1" arrows="1" fold="1" page="1" pageScale="1" pageWidth="850" pageHeight="1100" math="0" shadow="0">
      <root>
        <mxCell id="0" />
        <mxCell id="1" parent="0" />
        <mxCell id="E-yqdPlM3v_LNk1lALQs-1" value="Immutable Stack File Structure" style="swimlane;whiteSpace=wrap;html=1;startSize=23;" vertex="1" parent="1">
          <mxGeometry x="60" y="200" width="850" height="370" as="geometry" />
        </mxCell>
        <mxCell id="E-yqdPlM3v_LNk1lALQs-2" value="" style="sketch=0;pointerEvents=1;shadow=0;dashed=0;html=1;strokeColor=none;fillColor=#505050;labelPosition=center;verticalLabelPosition=bottom;verticalAlign=top;outlineConnect=0;align=center;shape=mxgraph.office.services.network_file_share_service;" vertex="1" parent="E-yqdPlM3v_LNk1lALQs-1">
          <mxGeometry x="47.5" y="250" width="55" height="53" as="geometry" />
        </mxCell>
        <mxCell id="E-yqdPlM3v_LNk1lALQs-3" value="my_app_umbrella" style="text;html=1;align=center;verticalAlign=middle;whiteSpace=wrap;rounded=0;" vertex="1" parent="E-yqdPlM3v_LNk1lALQs-1">
          <mxGeometry x="20" y="220" width="110" height="30" as="geometry" />
        </mxCell>
        <mxCell id="E-yqdPlM3v_LNk1lALQs-6" value="" style="sketch=0;pointerEvents=1;shadow=0;dashed=0;html=1;strokeColor=none;fillColor=#505050;labelPosition=center;verticalLabelPosition=bottom;verticalAlign=top;outlineConnect=0;align=center;shape=mxgraph.office.services.network_file_share_service;" vertex="1" parent="E-yqdPlM3v_LNk1lALQs-1">
          <mxGeometry x="177.5" y="167" width="55" height="53" as="geometry" />
        </mxCell>
        <mxCell id="E-yqdPlM3v_LNk1lALQs-7" value="apps" style="text;html=1;align=center;verticalAlign=middle;whiteSpace=wrap;rounded=0;" vertex="1" parent="E-yqdPlM3v_LNk1lALQs-1">
          <mxGeometry x="150" y="137" width="110" height="30" as="geometry" />
        </mxCell>
        <mxCell id="E-yqdPlM3v_LNk1lALQs-8" value="" style="sketch=0;pointerEvents=1;shadow=0;dashed=0;html=1;strokeColor=none;fillColor=#505050;labelPosition=center;verticalLabelPosition=bottom;verticalAlign=top;outlineConnect=0;align=center;shape=mxgraph.office.services.network_file_share_service;" vertex="1" parent="E-yqdPlM3v_LNk1lALQs-1">
          <mxGeometry x="177.5" y="290" width="55" height="53" as="geometry" />
        </mxCell>
        <mxCell id="E-yqdPlM3v_LNk1lALQs-9" value="config" style="text;html=1;align=center;verticalAlign=middle;whiteSpace=wrap;rounded=0;" vertex="1" parent="E-yqdPlM3v_LNk1lALQs-1">
          <mxGeometry x="150" y="260" width="110" height="30" as="geometry" />
        </mxCell>
        <mxCell id="E-yqdPlM3v_LNk1lALQs-11" value="my_app (lib)" style="text;html=1;align=center;verticalAlign=middle;whiteSpace=wrap;rounded=0;" vertex="1" parent="E-yqdPlM3v_LNk1lALQs-1">
          <mxGeometry x="290" y="54" width="110" height="30" as="geometry" />
        </mxCell>
        <mxCell id="E-yqdPlM3v_LNk1lALQs-13" value="my_app_web" style="text;html=1;align=center;verticalAlign=middle;whiteSpace=wrap;rounded=0;" vertex="1" parent="E-yqdPlM3v_LNk1lALQs-1">
          <mxGeometry x="290" y="137" width="110" height="30" as="geometry" />
        </mxCell>
        <mxCell id="E-yqdPlM3v_LNk1lALQs-5" value="my_app_ui" style="text;html=1;align=center;verticalAlign=middle;whiteSpace=wrap;rounded=0;" vertex="1" parent="E-yqdPlM3v_LNk1lALQs-1">
          <mxGeometry x="290" y="222" width="110" height="30" as="geometry" />
        </mxCell>
        <mxCell id="E-yqdPlM3v_LNk1lALQs-20" value="reusable domain libraries" style="shape=cube;whiteSpace=wrap;html=1;boundedLbl=1;backgroundOutline=1;darkOpacity=0.05;darkOpacity2=0.1;size=6;" vertex="1" parent="E-yqdPlM3v_LNk1lALQs-1">
          <mxGeometry x="300" y="84" width="100" height="50" as="geometry" />
        </mxCell>
        <mxCell id="E-yqdPlM3v_LNk1lALQs-22" value="web server (app) definition" style="shape=cube;whiteSpace=wrap;html=1;boundedLbl=1;backgroundOutline=1;darkOpacity=0.05;darkOpacity2=0.1;size=6;" vertex="1" parent="E-yqdPlM3v_LNk1lALQs-1">
          <mxGeometry x="300" y="168.5" width="100" height="50" as="geometry" />
        </mxCell>
        <mxCell id="E-yqdPlM3v_LNk1lALQs-24" value="ui definition" style="shape=cube;whiteSpace=wrap;html=1;boundedLbl=1;backgroundOutline=1;darkOpacity=0.05;darkOpacity2=0.1;size=6;" vertex="1" parent="E-yqdPlM3v_LNk1lALQs-1">
          <mxGeometry x="300" y="250" width="100" height="50" as="geometry" />
        </mxCell>
        <mxCell id="E-yqdPlM3v_LNk1lALQs-25" value="" style="shape=process;whiteSpace=wrap;html=1;backgroundOutline=1;" vertex="1" parent="E-yqdPlM3v_LNk1lALQs-1">
          <mxGeometry x="430" y="54" width="80" height="30" as="geometry" />
        </mxCell>
        <mxCell id="E-yqdPlM3v_LNk1lALQs-26" value="&lt;font style=&quot;font-size: 8px;&quot;&gt;Reducers Selectors&lt;/font&gt;" style="text;html=1;align=center;verticalAlign=middle;whiteSpace=wrap;rounded=0;" vertex="1" parent="E-yqdPlM3v_LNk1lALQs-1">
          <mxGeometry x="440" y="54" width="60" height="30" as="geometry" />
        </mxCell>
        <mxCell id="E-yqdPlM3v_LNk1lALQs-27" value="" style="shape=process;whiteSpace=wrap;html=1;backgroundOutline=1;" vertex="1" parent="E-yqdPlM3v_LNk1lALQs-1">
          <mxGeometry x="520" y="54" width="80" height="30" as="geometry" />
        </mxCell>
        <mxCell id="E-yqdPlM3v_LNk1lALQs-28" value="&lt;font style=&quot;font-size: 8px;&quot;&gt;Request APIS&lt;/font&gt;" style="text;html=1;align=center;verticalAlign=middle;whiteSpace=wrap;rounded=0;" vertex="1" parent="E-yqdPlM3v_LNk1lALQs-1">
          <mxGeometry x="530" y="54" width="60" height="30" as="geometry" />
        </mxCell>
        <mxCell id="E-yqdPlM3v_LNk1lALQs-29" value="" style="shape=process;whiteSpace=wrap;html=1;backgroundOutline=1;" vertex="1" parent="E-yqdPlM3v_LNk1lALQs-1">
          <mxGeometry x="520" y="94" width="80" height="30" as="geometry" />
        </mxCell>
        <mxCell id="E-yqdPlM3v_LNk1lALQs-30" value="&lt;font style=&quot;font-size: 8px;&quot;&gt;Type Definitions&lt;/font&gt;" style="text;html=1;align=center;verticalAlign=middle;whiteSpace=wrap;rounded=0;" vertex="1" parent="E-yqdPlM3v_LNk1lALQs-1">
          <mxGeometry x="530" y="94" width="60" height="30" as="geometry" />
        </mxCell>
        <mxCell id="E-yqdPlM3v_LNk1lALQs-31" value="" style="shape=process;whiteSpace=wrap;html=1;backgroundOutline=1;" vertex="1" parent="E-yqdPlM3v_LNk1lALQs-1">
          <mxGeometry x="430" y="94" width="80" height="30" as="geometry" />
        </mxCell>
        <mxCell id="E-yqdPlM3v_LNk1lALQs-32" value="&lt;font style=&quot;font-size: 8px;&quot;&gt;Reusable Components&lt;/font&gt;" style="text;html=1;align=center;verticalAlign=middle;whiteSpace=wrap;rounded=0;" vertex="1" parent="E-yqdPlM3v_LNk1lALQs-1">
          <mxGeometry x="440" y="94" width="60" height="30" as="geometry" />
        </mxCell>
        <mxCell id="E-yqdPlM3v_LNk1lALQs-33" value="" style="shape=process;whiteSpace=wrap;html=1;backgroundOutline=1;" vertex="1" parent="E-yqdPlM3v_LNk1lALQs-1">
          <mxGeometry x="650" y="54" width="80" height="30" as="geometry" />
        </mxCell>
        <mxCell id="E-yqdPlM3v_LNk1lALQs-34" value="&lt;font style=&quot;font-size: 8px;&quot;&gt;Context APIs&lt;/font&gt;" style="text;html=1;align=center;verticalAlign=middle;whiteSpace=wrap;rounded=0;" vertex="1" parent="E-yqdPlM3v_LNk1lALQs-1">
          <mxGeometry x="660" y="54" width="60" height="30" as="geometry" />
        </mxCell>
        <mxCell id="E-yqdPlM3v_LNk1lALQs-35" value="" style="shape=process;whiteSpace=wrap;html=1;backgroundOutline=1;" vertex="1" parent="E-yqdPlM3v_LNk1lALQs-1">
          <mxGeometry x="650" y="94" width="80" height="30" as="geometry" />
        </mxCell>
        <mxCell id="E-yqdPlM3v_LNk1lALQs-36" value="&lt;font style=&quot;font-size: 8px;&quot;&gt;Schemas&lt;/font&gt;" style="text;html=1;align=center;verticalAlign=middle;whiteSpace=wrap;rounded=0;" vertex="1" parent="E-yqdPlM3v_LNk1lALQs-1">
          <mxGeometry x="660" y="94" width="60" height="30" as="geometry" />
        </mxCell>
        <mxCell id="E-yqdPlM3v_LNk1lALQs-37" value="" style="shape=process;whiteSpace=wrap;html=1;backgroundOutline=1;" vertex="1" parent="E-yqdPlM3v_LNk1lALQs-1">
          <mxGeometry x="740" y="54" width="80" height="30" as="geometry" />
        </mxCell>
        <mxCell id="E-yqdPlM3v_LNk1lALQs-38" value="&lt;font style=&quot;font-size: 8px;&quot;&gt;Database Migrations&lt;/font&gt;" style="text;html=1;align=center;verticalAlign=middle;whiteSpace=wrap;rounded=0;" vertex="1" parent="E-yqdPlM3v_LNk1lALQs-1">
          <mxGeometry x="750" y="54" width="60" height="30" as="geometry" />
        </mxCell>
        <mxCell id="E-yqdPlM3v_LNk1lALQs-39" value="" style="shape=process;whiteSpace=wrap;html=1;backgroundOutline=1;" vertex="1" parent="E-yqdPlM3v_LNk1lALQs-1">
          <mxGeometry x="650" y="178.5" width="80" height="30" as="geometry" />
        </mxCell>
        <mxCell id="E-yqdPlM3v_LNk1lALQs-40" value="&lt;div&gt;&lt;font style=&quot;font-size: 8px;&quot;&gt;Controllers Channels&lt;/font&gt;&lt;/div&gt;" style="text;html=1;align=center;verticalAlign=middle;whiteSpace=wrap;rounded=0;" vertex="1" parent="E-yqdPlM3v_LNk1lALQs-1">
          <mxGeometry x="660" y="178.5" width="60" height="30" as="geometry" />
        </mxCell>
        <mxCell id="E-yqdPlM3v_LNk1lALQs-42" value="" style="shape=process;whiteSpace=wrap;html=1;backgroundOutline=1;" vertex="1" parent="E-yqdPlM3v_LNk1lALQs-1">
          <mxGeometry x="740" y="178.5" width="80" height="30" as="geometry" />
        </mxCell>
        <mxCell id="E-yqdPlM3v_LNk1lALQs-43" value="&lt;font style=&quot;font-size: 8px;&quot;&gt;Router&lt;/font&gt;" style="text;html=1;align=center;verticalAlign=middle;whiteSpace=wrap;rounded=0;" vertex="1" parent="E-yqdPlM3v_LNk1lALQs-1">
          <mxGeometry x="750" y="178.5" width="60" height="30" as="geometry" />
        </mxCell>
        <mxCell id="E-yqdPlM3v_LNk1lALQs-44" value="" style="shape=process;whiteSpace=wrap;html=1;backgroundOutline=1;" vertex="1" parent="E-yqdPlM3v_LNk1lALQs-1">
          <mxGeometry x="430" y="261.5" width="80" height="30" as="geometry" />
        </mxCell>
        <mxCell id="E-yqdPlM3v_LNk1lALQs-45" value="&lt;font style=&quot;font-size: 8px;&quot;&gt;App Definition&lt;/font&gt;" style="text;html=1;align=center;verticalAlign=middle;whiteSpace=wrap;rounded=0;" vertex="1" parent="E-yqdPlM3v_LNk1lALQs-1">
          <mxGeometry x="440" y="261.5" width="60" height="30" as="geometry" />
        </mxCell>
        <mxCell id="E-yqdPlM3v_LNk1lALQs-48" value="" style="shape=process;whiteSpace=wrap;html=1;backgroundOutline=1;" vertex="1" parent="E-yqdPlM3v_LNk1lALQs-1">
          <mxGeometry x="520" y="261.5" width="80" height="30" as="geometry" />
        </mxCell>
        <mxCell id="E-yqdPlM3v_LNk1lALQs-49" value="&lt;font style=&quot;font-size: 8px;&quot;&gt;Global App State&lt;/font&gt;" style="text;html=1;align=center;verticalAlign=middle;whiteSpace=wrap;rounded=0;" vertex="1" parent="E-yqdPlM3v_LNk1lALQs-1">
          <mxGeometry x="530" y="261.5" width="60" height="30" as="geometry" />
        </mxCell>
        <mxCell id="E-yqdPlM3v_LNk1lALQs-50" value="&lt;font style=&quot;font-size: 14px;&quot;&gt;&lt;b&gt;REACT / REDUX&lt;/b&gt;&lt;/font&gt;" style="text;html=1;align=center;verticalAlign=middle;whiteSpace=wrap;rounded=0;" vertex="1" parent="E-yqdPlM3v_LNk1lALQs-1">
          <mxGeometry x="450" y="24" width="140" height="30" as="geometry" />
        </mxCell>
        <mxCell id="E-yqdPlM3v_LNk1lALQs-51" value="&lt;font style=&quot;font-size: 14px;&quot;&gt;&lt;b&gt;PHOENIX&lt;/b&gt;&lt;/font&gt;" style="text;html=1;align=center;verticalAlign=middle;whiteSpace=wrap;rounded=0;" vertex="1" parent="E-yqdPlM3v_LNk1lALQs-1">
          <mxGeometry x="660" y="24" width="140" height="30" as="geometry" />
        </mxCell>
        <mxCell id="E-yqdPlM3v_LNk1lALQs-52" value="" style="triangle;whiteSpace=wrap;html=1;fillStyle=solid;fillColor=light-dark(#FFFFFF,#FFFFFF);" vertex="1" parent="E-yqdPlM3v_LNk1lALQs-1">
          <mxGeometry x="410" y="253.25" width="10" height="43.5" as="geometry" />
        </mxCell>
        <mxCell id="E-yqdPlM3v_LNk1lALQs-53" value="" style="triangle;whiteSpace=wrap;html=1;fillStyle=solid;fillColor=light-dark(#FFFFFF,#FFFFFF);" vertex="1" parent="E-yqdPlM3v_LNk1lALQs-1">
          <mxGeometry x="410" y="168.5" width="10" height="43.5" as="geometry" />
        </mxCell>
        <mxCell id="E-yqdPlM3v_LNk1lALQs-54" value="" style="triangle;whiteSpace=wrap;html=1;fillStyle=solid;fillColor=light-dark(#FFFFFF,#FFFFFF);" vertex="1" parent="E-yqdPlM3v_LNk1lALQs-1">
          <mxGeometry x="410" y="70" width="10" height="43.5" as="geometry" />
        </mxCell>
        <mxCell id="E-yqdPlM3v_LNk1lALQs-55" value="" style="endArrow=none;html=1;rounded=0;" edge="1" parent="E-yqdPlM3v_LNk1lALQs-1">
          <mxGeometry width="50" height="50" relative="1" as="geometry">
            <mxPoint x="100" y="290" as="sourcePoint" />
            <mxPoint x="170" y="203.25" as="targetPoint" />
          </mxGeometry>
        </mxCell>
        <mxCell id="E-yqdPlM3v_LNk1lALQs-56" value="" style="endArrow=none;html=1;rounded=0;" edge="1" parent="E-yqdPlM3v_LNk1lALQs-1" source="E-yqdPlM3v_LNk1lALQs-2">
          <mxGeometry width="50" height="50" relative="1" as="geometry">
            <mxPoint x="120" y="280" as="sourcePoint" />
            <mxPoint x="170" y="310" as="targetPoint" />
          </mxGeometry>
        </mxCell>
        <mxCell id="E-yqdPlM3v_LNk1lALQs-57" value="" style="endArrow=none;html=1;rounded=0;entryX=0;entryY=0;entryDx=0;entryDy=22;entryPerimeter=0;" edge="1" parent="E-yqdPlM3v_LNk1lALQs-1" source="E-yqdPlM3v_LNk1lALQs-6" target="E-yqdPlM3v_LNk1lALQs-20">
          <mxGeometry width="50" height="50" relative="1" as="geometry">
            <mxPoint x="470" y="310" as="sourcePoint" />
            <mxPoint x="520" y="260" as="targetPoint" />
          </mxGeometry>
        </mxCell>
        <mxCell id="E-yqdPlM3v_LNk1lALQs-58" value="" style="endArrow=none;html=1;rounded=0;entryX=0;entryY=0;entryDx=0;entryDy=22;entryPerimeter=0;" edge="1" parent="E-yqdPlM3v_LNk1lALQs-1" source="E-yqdPlM3v_LNk1lALQs-6" target="E-yqdPlM3v_LNk1lALQs-22">
          <mxGeometry width="50" height="50" relative="1" as="geometry">
            <mxPoint x="470" y="310" as="sourcePoint" />
            <mxPoint x="520" y="260" as="targetPoint" />
          </mxGeometry>
        </mxCell>
        <mxCell id="E-yqdPlM3v_LNk1lALQs-59" value="" style="endArrow=none;html=1;rounded=0;entryX=0;entryY=0;entryDx=0;entryDy=22;entryPerimeter=0;" edge="1" parent="E-yqdPlM3v_LNk1lALQs-1" source="E-yqdPlM3v_LNk1lALQs-6" target="E-yqdPlM3v_LNk1lALQs-24">
          <mxGeometry width="50" height="50" relative="1" as="geometry">
            <mxPoint x="470" y="330" as="sourcePoint" />
            <mxPoint x="520" y="280" as="targetPoint" />
          </mxGeometry>
        </mxCell>
        <mxCell id="E-yqdPlM3v_LNk1lALQs-61" value="environments and variables" style="shape=cube;whiteSpace=wrap;html=1;boundedLbl=1;backgroundOutline=1;darkOpacity=0.05;darkOpacity2=0.1;size=6;" vertex="1" parent="E-yqdPlM3v_LNk1lALQs-1">
          <mxGeometry x="270" y="320" width="90" height="40" as="geometry" />
        </mxCell>
        <mxCell id="E-yqdPlM3v_LNk1lALQs-62" value="" style="endArrow=none;html=1;rounded=0;entryX=0;entryY=0;entryDx=0;entryDy=17;entryPerimeter=0;" edge="1" parent="E-yqdPlM3v_LNk1lALQs-1" source="E-yqdPlM3v_LNk1lALQs-8" target="E-yqdPlM3v_LNk1lALQs-61">
          <mxGeometry width="50" height="50" relative="1" as="geometry">
            <mxPoint x="470" y="330" as="sourcePoint" />
            <mxPoint x="520" y="280" as="targetPoint" />
          </mxGeometry>
        </mxCell>
        <mxCell id="E-yqdPlM3v_LNk1lALQs-65" value="" style="endArrow=none;dashed=1;html=1;rounded=0;" edge="1" parent="E-yqdPlM3v_LNk1lALQs-1">
          <mxGeometry width="50" height="50" relative="1" as="geometry">
            <mxPoint x="830" y="222" as="sourcePoint" />
            <mxPoint x="280" y="222" as="targetPoint" />
          </mxGeometry>
        </mxCell>
        <mxCell id="E-yqdPlM3v_LNk1lALQs-64" value="" style="endArrow=none;dashed=1;html=1;rounded=0;" edge="1" parent="1">
          <mxGeometry width="50" height="50" relative="1" as="geometry">
            <mxPoint x="890" y="340" as="sourcePoint" />
            <mxPoint x="340" y="340" as="targetPoint" />
          </mxGeometry>
        </mxCell>
        <mxCell id="E-yqdPlM3v_LNk1lALQs-72" value="" style="endArrow=none;dashed=1;html=1;rounded=0;" edge="1" parent="1">
          <mxGeometry width="50" height="50" relative="1" as="geometry">
            <mxPoint x="690" y="510" as="sourcePoint" />
            <mxPoint x="690" y="240" as="targetPoint" />
          </mxGeometry>
        </mxCell>
      </root>
    </mxGraphModel>
  </diagram>
</mxfile>
